<svg id="Layer_1" data-name="Layer 1" xmlns="http://www.w3.org/2000/svg" viewBox="0 0 593.63 183.41"><defs><style>.cls-1{fill:#0c9547;}</style></defs><path class="cls-1" d="M243.18,623q23.9,0,23.89-37.25v-92q0-33.9-23.89-33.9v-8.74h55L379.07,576V493q0-33.14-27.23-33.13v-8.74H412v9.24Q396,462.92,391.4,480.62q-1.54,6.67-1.54,31.81V631.7h-20L278.38,492v94.61q0,33.84,26.71,36.4v8.73H243.18Z" transform="translate(-243.18 -448.3)"/><path class="cls-1" d="M396,623.2q12.84-1.29,20.81-13.65,4.11-6.43,10-23.7L473.6,448.3h18.75q2.56,6.42,10.28,28.51,4.88,13.62,12.71,36.48t15.8,45.46q2.05,7.2,7.32,22.35t10.92,30.57q3.84,10.79,17.21,11.81v8H491.32v-8.22h4.37q12.33,0,12.33-8.3,0-6.49-5.91-22l-8.48-22.57H443.29q-8.48,24.9-8.48,34A19.17,19.17,0,0,0,441,618.56q5.64,4.66,15.15,4.67v8.22H396Zm94.53-62.91q-12.33-34.41-22.35-68.58-5.38,23.12-21.57,68.58Z" transform="translate(-243.18 -448.3)"/><path class="cls-1" d="M577.12,623h4.36c5.66,0,9.46-1,11.44-3s3-5.87,3-11.69V475.52q0-15.66-13.36-15.66h-5.39v-8.74h76.29v8.74h-3.85q-14.4,0-14.39,10.3V611.89q0,7.73,6.17,10.05a19.47,19.47,0,0,0,4.11.77c1.71.18,4.62.26,8.73.26v8.22H577.12Z" transform="translate(-243.18 -448.3)"/><path class="cls-1" d="M666.25,623.2q12.84-1.29,20.81-13.65,4.11-6.43,10-23.7L743.83,448.3h18.75q2.56,6.42,10.27,28.51,4.89,13.62,12.72,36.48t15.8,45.46q2.05,7.2,7.32,22.35t10.92,30.57q3.84,10.79,17.21,11.81v8H761.55v-8.22h4.37q12.33,0,12.33-8.3,0-6.49-5.91-22l-8.48-22.57H713.52q-8.47,24.9-8.48,34a19.17,19.17,0,0,0,6.17,14.27q5.64,4.66,15.15,4.67v8.22H666.25Zm94.53-62.91q-12.33-34.41-22.35-68.58-5.38,23.12-21.57,68.58Z" transform="translate(-243.18 -448.3)"/></svg>