<?xml version="1.0" encoding="UTF-8"?>
<svg id="Layer_2" data-name="Layer 2" xmlns="http://www.w3.org/2000/svg" viewBox="0 0 243.97 79.3">
  <defs>
    <style>
      .cls-1 {
        fill-rule: evenodd;
      }

      .cls-1, .cls-2 {
        fill: #00903c;
      }
    </style>
  </defs>
  <g id="Layer_1-2" data-name="Layer 1">
    <g>
      <polygon class="cls-2" points="91.71 71.57 89.6 71.57 89.6 72.79 91.35 72.79 91.35 74.14 89.6 74.14 89.6 76.62 88.16 76.62 88.16 70.22 91.71 70.22 91.71 71.57"/>
      <path class="cls-2" d="M122.52,75.69c.24,0,.43-.06.58-.16.14-.1.21-.24.21-.41v-.49h-.79c-.18,0-.32.05-.45.15-.12.09-.19.22-.19.38,0,.15.07.27.19.37.12.1.27.16.45.16M124.66,75.39h.53v1.23h-1.72v-.45c-.32.37-.76.56-1.32.56-.47,0-.86-.15-1.18-.44-.32-.3-.48-.67-.48-1.1s.16-.81.47-1.1c.32-.29.71-.44,1.19-.44h1.15v-.52h-2.47v-1.24h3.82v3.5ZM118.25,70.22h1.44v6.4h-1.46l-2.65-3.92v3.92h-1.44v-6.4h1.45l2.66,3.92v-3.92ZM109.44,70.22h1.44v6.4h-1.46l-2.65-3.92v3.92h-1.44v-6.4h1.45l2.66,3.92v-3.92ZM100.53,74.17h1.67l-.84-2.37-.84,2.37ZM103.06,76.62l-.4-1.12h-2.6l-.4,1.12h-1.54l2.4-6.4h1.7l2.41,6.4h-1.58ZM93.86,74.17h1.67l-.84-2.37-.84,2.37ZM96.4,76.62l-.4-1.12h-2.6l-.4,1.12h-1.54l2.4-6.4h1.7l2.41,6.4h-1.58Z"/>
      <path class="cls-2" d="M155.03,74.17h1.67l-.84-2.37-.84,2.37ZM157.56,76.62l-.4-1.12h-2.6l-.4,1.12h-1.54l2.4-6.4h1.7l2.41,6.4h-1.58ZM149.63,75.39h.76v1.23h-2.12v-6.68h1.36v5.45ZM144.98,75.69c.24,0,.43-.06.58-.16.14-.1.21-.24.21-.41v-.49h-.79c-.18,0-.32.05-.45.15-.12.09-.19.22-.19.38,0,.15.07.27.19.37.12.1.27.16.45.16ZM147.13,75.39h.53v1.23h-1.72v-.45c-.32.37-.76.56-1.32.56-.47,0-.86-.15-1.18-.44-.32-.3-.48-.67-.48-1.1s.16-.81.47-1.1c.32-.29.71-.44,1.19-.44h1.15v-.52h-2.47v-1.24h3.82v3.5ZM142.22,71.89v4.73h-1.36v-3.43h-1.89v3.43h-1.36v-4.73h4.6ZM133.44,75.09c.21.22.49.33.83.33s.61-.11.84-.33c.21-.22.32-.5.32-.84s-.11-.61-.32-.84c-.22-.22-.5-.33-.84-.33s-.61.11-.83.33c-.22.22-.33.5-.33.84s.11.61.33.84ZM136.09,76.02c-.49.48-1.1.71-1.83.71s-1.34-.23-1.82-.71c-.49-.47-.73-1.06-.73-1.76s.24-1.3.73-1.77c.48-.47,1.09-.71,1.82-.71s1.34.23,1.83.71c.48.47.72,1.07.72,1.77s-.24,1.29-.72,1.76ZM129.56,76.62v-4.73h1.36v4.73h-1.36ZM130.23,71.28c-.23,0-.44-.08-.59-.24-.16-.16-.24-.35-.24-.59s.08-.44.24-.59c.16-.16.36-.23.59-.23s.45.07.6.23c.17.16.24.35.24.59s-.07.44-.24.59c-.16.16-.36.24-.6.24ZM128.73,73.12h-1.12v2.26h1.12v1.23h-2.48v-3.5h-.83v-1.23h.83v-1.39h1.36v1.39h1.12v1.23Z"/>
      <path class="cls-2" d="M168.63,75.69c.24,0,.43-.06.58-.16.14-.1.21-.24.21-.41v-.49h-.79c-.18,0-.32.05-.45.15-.12.09-.19.22-.19.38,0,.15.07.27.19.37.12.1.27.16.45.16M170.77,75.39h.53v1.23h-1.72v-.45c-.32.37-.76.56-1.32.56-.47,0-.86-.15-1.18-.44-.32-.3-.48-.67-.48-1.1s.16-.81.47-1.1c.32-.29.71-.44,1.19-.44h1.15v-.52h-2.47v-1.24h3.82v3.5ZM164.5,76.62v-4.73h1.36v4.73h-1.36ZM165.18,71.28c-.23,0-.44-.08-.59-.24-.16-.16-.24-.35-.24-.59s.08-.44.24-.59c.16-.16.36-.23.59-.23s.45.07.6.23c.17.16.24.35.24.59s-.07.44-.24.59c-.16.16-.36.24-.6.24ZM162.43,71.89h1.51l-1.92,4.73h-1.39l-1.93-4.73h1.55l1.1,3.02,1.09-3.02Z"/>
      <path class="cls-2" d="M194.6,76.73c-.97,0-1.77-.32-2.41-.95-.65-.64-.97-1.43-.97-2.37s.32-1.73.97-2.37c.64-.63,1.45-.95,2.41-.95.83,0,1.55.24,2.15.72.61.49,1,1.11,1.16,1.88h-1.52c-.14-.36-.37-.66-.7-.88-.32-.22-.68-.33-1.1-.33-.55,0-1,.19-1.36.55-.36.37-.55.84-.55,1.38s.19,1.01.55,1.37c.36.37.82.56,1.36.56.42,0,.78-.11,1.1-.33.32-.22.56-.52.7-.88h1.52c-.16.76-.55,1.38-1.16,1.87-.6.48-1.33.72-2.15.72M188.33,71.89v4.73h-1.36v-3.43h-1.89v3.43h-1.36v-4.73h4.6ZM179.55,75.09c.21.22.49.33.83.33s.61-.11.84-.33c.21-.22.32-.5.32-.84s-.11-.61-.32-.84c-.22-.22-.5-.33-.84-.33s-.61.11-.83.33c-.22.22-.33.5-.33.84s.11.61.33.84ZM182.21,76.02c-.49.48-1.1.71-1.83.71s-1.34-.23-1.82-.71c-.49-.47-.73-1.06-.73-1.76s.24-1.3.73-1.77c.48-.47,1.09-.71,1.82-.71s1.34.23,1.83.71c.48.47.72,1.07.72,1.77s-.24,1.29-.72,1.76ZM175.67,76.62v-4.73h1.36v4.73h-1.36ZM176.35,71.28c-.23,0-.44-.08-.59-.24-.16-.16-.24-.35-.24-.59s.08-.44.24-.59c.16-.16.36-.23.59-.23s.45.07.6.23c.17.16.24.35.24.59s-.07.44-.24.59c-.16.16-.36.24-.6.24ZM174.85,73.12h-1.12v2.26h1.12v1.23h-2.48v-3.5h-.83v-1.23h.83v-1.39h1.36v1.39h1.12v1.23Z"/>
      <path class="cls-2" d="M212.95,71.17h-1.12v.71h1.12v1.23h-1.12v3.5h-1.36v-3.5h-.71v-1.23h.71v-1.95h2.48v1.23ZM208.98,71.89v4.73h-1.36v-3.43h-1.89v3.43h-1.36v-4.73h4.6ZM200.2,75.09c.21.22.49.33.83.33s.61-.11.84-.33c.21-.22.33-.5.33-.84s-.11-.61-.33-.84c-.22-.22-.5-.33-.84-.33s-.61.11-.83.33c-.22.22-.33.5-.33.84s.11.61.33.84ZM202.86,76.02c-.49.48-1.1.71-1.83.71s-1.34-.23-1.82-.71c-.49-.47-.73-1.06-.73-1.76s.24-1.3.73-1.77c.48-.47,1.09-.71,1.82-.71s1.34.23,1.83.71c.48.47.72,1.07.72,1.77s-.24,1.29-.72,1.76Z"/>
      <path class="cls-2" d="M221.74,71.89v1.34h-1.32v3.4h-1.36v-4.73h2.67ZM215.74,72.94c-.26,0-.49.07-.69.22-.19.16-.32.36-.41.62h2.19c-.06-.26-.2-.46-.4-.62-.2-.15-.44-.22-.7-.22ZM218.29,74.27c0,.18,0,.32-.04.42h-3.62c.07.27.21.47.42.63.2.15.44.23.71.23.22,0,.43-.05.6-.14.18-.08.31-.19.39-.33h1.44c-.18.49-.48.89-.92,1.2-.45.31-.96.45-1.54.45-.72,0-1.34-.23-1.82-.71-.49-.47-.73-1.06-.73-1.76s.24-1.3.73-1.77c.48-.47,1.1-.71,1.82-.71s1.34.23,1.82.71c.49.47.73,1.08.73,1.79Z"/>
      <path class="cls-2" d="M241.41,72.94c-.26,0-.49.07-.69.22-.19.16-.32.36-.41.62h2.19c-.07-.26-.2-.46-.4-.62-.2-.15-.44-.22-.7-.22M243.97,74.27c0,.18,0,.32-.04.42h-3.62c.07.27.21.47.42.63.19.15.44.23.71.23.22,0,.43-.05.6-.14.18-.08.31-.19.39-.33h1.44c-.18.49-.48.89-.92,1.2-.45.31-.96.45-1.54.45-.72,0-1.34-.23-1.82-.71-.49-.47-.73-1.06-.73-1.76s.24-1.3.73-1.77c.48-.47,1.1-.71,1.82-.71s1.34.23,1.82.71c.49.47.73,1.08.73,1.79ZM235.87,76.73c-.72,0-1.34-.23-1.82-.71-.49-.47-.73-1.06-.73-1.76s.24-1.3.73-1.77c.48-.47,1.1-.71,1.82-.71.64,0,1.19.19,1.65.56.46.38.74.85.84,1.44h-1.44c-.08-.21-.22-.38-.42-.5-.2-.12-.41-.19-.64-.19-.33,0-.61.11-.83.33-.22.22-.33.5-.33.84s.11.61.33.84c.21.22.49.33.83.33.24,0,.45-.07.64-.19.19-.12.33-.29.42-.5h1.44c-.11.59-.39,1.06-.84,1.44-.46.37-1.01.56-1.65.56ZM232.52,71.89v4.73h-1.36v-3.43h-1.89v3.43h-1.36v-4.73h4.6ZM224.58,72.94c-.26,0-.49.07-.69.22-.19.16-.32.36-.41.62h2.19c-.07-.26-.2-.46-.4-.62-.2-.15-.44-.22-.7-.22ZM227.14,74.27c0,.18,0,.32-.04.42h-3.62c.07.27.21.47.42.63.2.15.44.23.72.23.22,0,.43-.05.6-.14.18-.08.31-.19.39-.33h1.44c-.18.49-.48.89-.92,1.2-.45.31-.96.45-1.54.45-.72,0-1.34-.23-1.82-.71-.49-.47-.73-1.06-.73-1.76s.24-1.3.73-1.77c.48-.47,1.1-.71,1.82-.71s1.34.23,1.82.71c.49.47.73,1.08.73,1.79Z"/>
      <path class="cls-1" d="M69.93,24.26c.04.08.42,1.05.46,1.13,2.54,5.03,3.97,10.71,3.97,16.73,0,20.53-16.65,37.18-37.18,37.18-11.67,0-22.08-5.38-28.9-13.79,19.82,1.8,48.63-22.25,61.65-41.25M37.18,4.94c13.14,0,24.68,6.81,31.29,17.1.08.12.71.94.78,1.06C62.37,28.19,0,70.25,0,42.12,0,21.58,16.65,4.94,37.18,4.94Z"/>
      <path class="cls-1" d="M88.19,10.94l-1.72,3.74c.84.15,7.07-1.1,8.51-1.44l.75-1.25c-1.34-.38-2.62-.64-3.91-1.3-.86-.51-1.76-.9-1.82-2.05.1-.23.09-.3.21-.52.79-1.39,2.35-3.62,3.31-5.19.93-1.5,2.56-3.37-.68-2.85-4.17.67-5.94,4.84-8.17,7.84-2.35,3.16-8.52,4.45-12.35,5.44-.24.36-.68.91-.93,1.24.75.31,7.93.45,8.06.51-1.11,1.5-5.97,6.09-9.17,8.1,6.33,0,13.73-6.92,17.89-12.27"/>
      <polygon class="cls-2" points="112.82 29.57 98.14 29.57 98.14 38 110.31 38 110.31 47.4 98.14 47.4 98.14 64.59 88.16 64.59 88.16 20.17 112.82 20.17 112.82 29.57"/>
      <polygon class="cls-2" points="144.22 20.17 154.2 20.17 154.2 64.59 144.09 64.59 125.68 37.42 125.68 64.59 115.7 64.59 115.7 20.17 125.74 20.17 144.22 47.34 144.22 20.17"/>
      <path class="cls-2" d="M172.45,47.6h11.59l-5.79-16.42-5.79,16.42ZM190.03,64.59l-2.77-7.79h-18.03l-2.77,7.79h-10.69l16.68-44.42h11.78l16.74,44.42h-10.95Z"/>
      <path class="cls-2" d="M220.99,65.37c-6.7,0-12.3-2.19-16.74-6.57-4.51-4.44-6.76-9.92-6.76-16.42s2.25-11.98,6.76-16.42c4.44-4.38,10.04-6.57,16.74-6.57,5.73,0,10.75,1.67,14.94,5.02,4.25,3.41,6.95,7.73,8.05,13.01h-10.56c-.97-2.51-2.58-4.57-4.83-6.12-2.19-1.55-4.7-2.32-7.6-2.32-3.8,0-6.95,1.29-9.46,3.8-2.51,2.58-3.8,5.79-3.8,9.59s1.29,7.02,3.8,9.53c2.51,2.58,5.67,3.86,9.46,3.86,2.9,0,5.41-.77,7.6-2.32,2.25-1.55,3.86-3.61,4.83-6.12h10.56c-1.09,5.28-3.8,9.59-8.05,13.01-4.18,3.35-9.21,5.02-14.94,5.02"/>
    </g>
  </g>
</svg>